<?xml version="1.0" encoding="UTF-8" standalone="no"?>
<!-- Created with Inkscape (http://www.inkscape.org/) -->

<svg
   xmlns:dc="http://purl.org/dc/elements/1.1/"
   xmlns:cc="http://creativecommons.org/ns#"
   xmlns:rdf="http://www.w3.org/1999/02/22-rdf-syntax-ns#"
   xmlns:svg="http://www.w3.org/2000/svg"
   xmlns="http://www.w3.org/2000/svg"
   xmlns:xlink="http://www.w3.org/1999/xlink"
   xmlns:sodipodi="http://sodipodi.sourceforge.net/DTD/sodipodi-0.dtd"
   xmlns:inkscape="http://www.inkscape.org/namespaces/inkscape"
   width="1000"
   height="1000"
   viewBox="0 0 264.58333 264.58334"
   version="1.1"
   id="svg1761"
   inkscape:version="0.92.3 (2405546, 2018-03-11)"
   sodipodi:docname="pot-adaptive.svg"
   inkscape:export-filename="D:\P22\Mine\Pic &amp; Vid\Ink\output\pot(adaptive).png"
   inkscape:export-xdpi="73"
   inkscape:export-ydpi="73">
  <defs
     id="defs1755">
    <linearGradient
       id="linearGradient854"
       inkscape:collect="always">
      <stop
         id="stop850"
         offset="0"
         style="stop-color:#d6fbff;stop-opacity:1" />
      <stop
         id="stop852"
         offset="1"
         style="stop-color:#a0c7ff;stop-opacity:0.96470588" />
    </linearGradient>
    <linearGradient
       id="linearGradient848"
       inkscape:collect="always">
      <stop
         id="stop844"
         offset="0"
         style="stop-color:#d6fbff;stop-opacity:1" />
      <stop
         id="stop846"
         offset="1"
         style="stop-color:#a0c7ff;stop-opacity:0.96470588" />
    </linearGradient>
    <linearGradient
       inkscape:collect="always"
       id="linearGradient836">
      <stop
         style="stop-color:#d6fbff;stop-opacity:1"
         offset="0"
         id="stop832" />
      <stop
         style="stop-color:#a0c7ff;stop-opacity:0.96470588"
         offset="1"
         id="stop834" />
    </linearGradient>
    <filter
       inkscape:collect="always"
       style="color-interpolation-filters:sRGB"
       id="filter854"
       x="-0.048714641"
       width="1.0974293"
       y="-0.078090691"
       height="1.1561814">
      <feGaussianBlur
         inkscape:collect="always"
         stdDeviation="3.4123192"
         id="feGaussianBlur856" />
    </filter>
    <linearGradient
       inkscape:collect="always"
       xlink:href="#linearGradient836"
       id="linearGradient838"
       x1="40.865734"
       y1="227.67427"
       x2="231.31528"
       y2="111.14475"
       gradientUnits="userSpaceOnUse" />
    <linearGradient
       inkscape:collect="always"
       xlink:href="#linearGradient848"
       id="linearGradient840"
       x1="40.865734"
       y1="227.67427"
       x2="231.31528"
       y2="111.14475"
       gradientUnits="userSpaceOnUse" />
    <linearGradient
       inkscape:collect="always"
       xlink:href="#linearGradient854"
       id="linearGradient842"
       x1="40.865734"
       y1="227.67427"
       x2="231.31528"
       y2="111.14475"
       gradientUnits="userSpaceOnUse" />
  </defs>
  <sodipodi:namedview
     id="base"
     pagecolor="#c2c2c2"
     bordercolor="#666666"
     borderopacity="1.0"
     inkscape:pageopacity="0"
     inkscape:pageshadow="2"
     inkscape:zoom="0.49497475"
     inkscape:cx="682.00792"
     inkscape:cy="454.15382"
     inkscape:document-units="px"
     inkscape:current-layer="layer4"
     showgrid="false"
     units="px"
     inkscape:window-width="1366"
     inkscape:window-height="705"
     inkscape:window-x="-8"
     inkscape:window-y="-8"
     inkscape:window-maximized="1"
     inkscape:snap-global="false" />
  <metadata
     id="metadata1758">
    <rdf:RDF>
      <cc:Work
         rdf:about="">
        <dc:format>image/svg+xml</dc:format>
        <dc:type
           rdf:resource="http://purl.org/dc/dcmitype/StillImage" />
        <dc:title />
      </cc:Work>
    </rdf:RDF>
  </metadata>
  <g
     inkscape:label="default"
     inkscape:groupmode="layer"
     id="layer1"
     transform="translate(0,-32.416659)"
     style="display:none">
    <path
       style="display:inline;opacity:1;fill:#ffffff;fill-opacity:1;stroke:none;stroke-width:12.90574265;stroke-linecap:butt;stroke-linejoin:miter;stroke-miterlimit:20;stroke-dasharray:none;stroke-dashoffset:0;stroke-opacity:1"
       d="M 132.29124,44.77027 C 66.05134,44.770418 12.353337,98.468434 12.35321,164.70834 12.353337,230.94822 66.051361,284.64623 132.29124,284.64638 198.53146,284.64672 252.23001,230.94856 252.23014,164.70834 252.23001,98.468094 198.53148,44.76993 132.29124,44.77027 Z M 48.235156,118.906 H 66.14644 V 125.48412 C 71.343162,122.30731 77.187411,120.48133 83.132668,120.0518 92.452244,119.37854 102.01959,122.12998 109.72609,128.45636 L 98.360565,142.29846 C 90.175552,135.57926 78.394356,136.43167 71.260197,144.25762 68.213764,147.59938 66.516361,151.66753 66.14644,155.81855 V 159.28038 C 66.538419,163.69418 68.428911,167.9998 71.812582,171.4217 79.258412,178.95166 91.063218,179.3253 98.968798,172.27953 L 110.88755,185.65036 C 98.299787,196.8691 79.980998,198.08289 66.14644,189.61829 V 223.7785 H 48.235156 Z M 178.77681,118.906 H 194.29528 V 139.71454 H 215.76964 V 155.89885 H 194.29528 V 186.38952 C 194.29528,198.21945 209.94048,202.73607 216.34819,192.40824 V 212.11107 C 212.20576,213.74879 207.82233,214.56763 203.19816,214.56763 199.53737,214.56763 196.16507,214.03819 193.08232,212.9785 189.9995,211.82247 187.4954,210.28101 185.56874,208.35431 181.0409,204.01915 178.77681,197.85335 178.77681,189.85745 V 155.89885 139.71454 Z M 140.57027,128.86307 C 156.41305,128.86315 169.25615,141.70623 169.25628,157.54902 169.25666,173.39216 156.41341,186.23581 140.57027,186.2359 124.72713,186.23581 111.88388,173.39216 111.88426,157.54902 111.88439,141.70623 124.72749,128.86315 140.57027,128.86307 Z"
       id="circle1240"
       inkscape:connector-curvature="0"
       sodipodi:nodetypes="ccccccccccccccsccccccccccccsccsccscccccccc" />
  </g>
  <g
     inkscape:groupmode="layer"
     id="layer4"
     inkscape:label="pot only"
     style="display:inline">
    <g
       id="g836"
       style="fill:#000000;fill-opacity:0.20707074;filter:url(#filter854)"
       transform="translate(10.583333,5.2916667)">
      <path
         style="display:inline;opacity:1;fill:#000000;fill-opacity:0.20707074;stroke:none;stroke-width:3.4395833;stroke-linecap:butt;stroke-linejoin:miter;stroke-miterlimit:20;stroke-dasharray:none;stroke-dashoffset:0;stroke-opacity:1"
         d="M 48.235156,118.906 H 66.14644 V 125.48412 C 71.343162,122.30731 77.187411,120.48133 83.132668,120.0518 92.452244,119.37854 102.01959,122.12998 109.72609,128.45636 L 98.360565,142.29846 C 90.175552,135.57926 78.394356,136.43167 71.260197,144.25762 68.213764,147.59938 66.516361,151.66753 66.14644,155.81855 V 159.28038 C 66.538419,163.69418 68.428911,167.9998 71.812582,171.4217 79.258412,178.95166 91.063218,179.3253 98.968798,172.27953 L 110.88755,185.65036 C 98.299787,196.8691 79.980998,198.08289 66.14644,189.61829 V 223.7785 H 48.235156 Z"
         transform="translate(0,-32.41666)"
         id="path827"
         inkscape:connector-curvature="0" />
      <path
         style="display:inline;opacity:1;fill:#000000;fill-opacity:0.20707074;stroke:none;stroke-width:3.4395833;stroke-linecap:butt;stroke-linejoin:miter;stroke-miterlimit:20;stroke-dasharray:none;stroke-dashoffset:0;stroke-opacity:1"
         d="M 178.77681,118.906 H 194.29528 V 139.71454 H 215.76964 V 155.89885 H 194.29528 V 186.38952 C 194.29528,198.21945 209.94048,202.73607 216.34819,192.40824 V 212.11107 C 212.20576,213.74879 207.82233,214.56763 203.19816,214.56763 199.53737,214.56763 196.16507,214.03819 193.08232,212.9785 189.9995,211.82247 187.4954,210.28101 185.56874,208.35431 181.0409,204.01915 178.77681,197.85335 178.77681,189.85745 V 155.89885 139.71454 Z"
         transform="translate(0,-32.41666)"
         id="path829"
         inkscape:connector-curvature="0" />
      <path
         style="display:inline;opacity:1;fill:#000000;fill-opacity:0.20707074;stroke:none;stroke-width:3.4395833;stroke-linecap:butt;stroke-linejoin:miter;stroke-miterlimit:20;stroke-dasharray:none;stroke-dashoffset:0;stroke-opacity:1"
         d="M 140.57027,128.86307 C 156.41305,128.86315 169.25615,141.70623 169.25628,157.54902 169.25666,173.39216 156.41341,186.23581 140.57027,186.2359 124.72713,186.23581 111.88388,173.39216 111.88426,157.54902 111.88439,141.70623 124.72749,128.86315 140.57027,128.86307 Z"
         transform="translate(0,-32.41666)"
         id="path831"
         inkscape:connector-curvature="0" />
    </g>
    <path
       style="display:inline;opacity:1;fill:url(#linearGradient842);fill-opacity:1;stroke:none;stroke-width:3.4395833;stroke-linecap:butt;stroke-linejoin:miter;stroke-miterlimit:20;stroke-dasharray:none;stroke-dashoffset:0;stroke-opacity:1"
       d="M 48.235156,118.906 H 66.14644 V 125.48412 C 71.343162,122.30731 77.187411,120.48133 83.132668,120.0518 92.452244,119.37854 102.01959,122.12998 109.72609,128.45636 L 98.360565,142.29846 C 90.175552,135.57926 78.394356,136.43167 71.260197,144.25762 68.213764,147.59938 66.516361,151.66753 66.14644,155.81855 V 159.28038 C 66.538419,163.69418 68.428911,167.9998 71.812582,171.4217 79.258412,178.95166 91.063218,179.3253 98.968798,172.27953 L 110.88755,185.65036 C 98.299787,196.8691 79.980998,198.08289 66.14644,189.61829 V 223.7785 H 48.235156 Z"
       transform="translate(0,-32.41666)"
       id="path889"
       inkscape:connector-curvature="0" />
    <path
       style="display:inline;opacity:1;fill:url(#linearGradient838);fill-opacity:1;stroke:none;stroke-width:3.4395833;stroke-linecap:butt;stroke-linejoin:miter;stroke-miterlimit:20;stroke-dasharray:none;stroke-dashoffset:0;stroke-opacity:1"
       d="M 178.77681,118.906 H 194.29528 V 139.71454 H 215.76964 V 155.89885 H 194.29528 V 186.38952 C 194.29528,198.21945 209.94048,202.73607 216.34819,192.40824 V 212.11107 C 212.20576,213.74879 207.82233,214.56763 203.19816,214.56763 199.53737,214.56763 196.16507,214.03819 193.08232,212.9785 189.9995,211.82247 187.4954,210.28101 185.56874,208.35431 181.0409,204.01915 178.77681,197.85335 178.77681,189.85745 V 155.89885 139.71454 Z"
       id="path887"
       inkscape:connector-curvature="0"
       transform="translate(0,-32.41666)" />
    <path
       style="display:inline;opacity:1;fill:url(#linearGradient840);fill-opacity:1;stroke:none;stroke-width:3.4395833;stroke-linecap:butt;stroke-linejoin:miter;stroke-miterlimit:20;stroke-dasharray:none;stroke-dashoffset:0;stroke-opacity:1"
       d="M 140.57027,128.86307 C 156.41305,128.86315 169.25615,141.70623 169.25628,157.54902 169.25666,173.39216 156.41341,186.23581 140.57027,186.2359 124.72713,186.23581 111.88388,173.39216 111.88426,157.54902 111.88439,141.70623 124.72749,128.86315 140.57027,128.86307 Z"
       transform="translate(0,-32.41666)"
       id="path882"
       inkscape:connector-curvature="0" />
  </g>
  <g
     inkscape:groupmode="layer"
     id="layer5"
     inkscape:label="pot only-outline"
     style="display:none">
    <path
       inkscape:connector-curvature="0"
       id="path826"
       transform="translate(0,-32.41666)"
       d="M 48.235156,118.906 H 66.14644 V 125.48412 C 71.343162,122.30731 77.187411,120.48133 83.132668,120.0518 92.452244,119.37854 102.01959,122.12998 109.72609,128.45636 L 98.360565,142.29846 C 90.175552,135.57926 78.394356,136.43167 71.260197,144.25762 68.213764,147.59938 66.516361,151.66753 66.14644,155.81855 V 159.28038 C 66.538419,163.69418 68.428911,167.9998 71.812582,171.4217 79.258412,178.95166 91.063218,179.3253 98.968798,172.27953 L 110.88755,185.65036 C 98.299787,196.8691 79.980998,198.08289 66.14644,189.61829 V 223.7785 H 48.235156 Z"
       style="display:inline;opacity:1;fill:none;fill-opacity:1;stroke:#ffffff;stroke-width:3.4395833;stroke-linecap:butt;stroke-linejoin:miter;stroke-miterlimit:20;stroke-dasharray:none;stroke-dashoffset:0;stroke-opacity:1" />
    <path
       inkscape:connector-curvature="0"
       id="path828"
       transform="translate(0,-32.41666)"
       d="M 178.77681,118.906 H 194.29528 V 139.71454 H 215.76964 V 155.89885 H 194.29528 V 186.38952 C 194.29528,198.21945 209.94048,202.73607 216.34819,192.40824 V 212.11107 C 212.20576,213.74879 207.82233,214.56763 203.19816,214.56763 199.53737,214.56763 196.16507,214.03819 193.08232,212.9785 189.9995,211.82247 187.4954,210.28101 185.56874,208.35431 181.0409,204.01915 178.77681,197.85335 178.77681,189.85745 V 155.89885 139.71454 Z"
       style="display:inline;opacity:1;fill:none;fill-opacity:1;stroke:#ffffff;stroke-width:3.4395833;stroke-linecap:butt;stroke-linejoin:miter;stroke-miterlimit:20;stroke-dasharray:none;stroke-dashoffset:0;stroke-opacity:1" />
    <path
       inkscape:connector-curvature="0"
       id="path830"
       transform="translate(0,-32.41666)"
       d="M 140.57027,128.86307 C 156.41305,128.86315 169.25615,141.70623 169.25628,157.54902 169.25666,173.39216 156.41341,186.23581 140.57027,186.2359 124.72713,186.23581 111.88388,173.39216 111.88426,157.54902 111.88439,141.70623 124.72749,128.86315 140.57027,128.86307 Z"
       style="display:inline;opacity:1;fill:none;fill-opacity:1;stroke:#ffffff;stroke-width:3.4395833;stroke-linecap:butt;stroke-linejoin:miter;stroke-miterlimit:20;stroke-dasharray:none;stroke-dashoffset:0;stroke-opacity:1" />
  </g>
  <g
     inkscape:groupmode="layer"
     id="layer2"
     inkscape:label="outline"
     style="display:none">
    <path
       id="path817"
       style="color:#000000;font-style:normal;font-variant:normal;font-weight:normal;font-stretch:normal;font-size:medium;line-height:normal;font-family:sans-serif;font-variant-ligatures:normal;font-variant-position:normal;font-variant-caps:normal;font-variant-numeric:normal;font-variant-alternates:normal;font-feature-settings:normal;text-indent:0;text-align:start;text-decoration:none;text-decoration-line:none;text-decoration-style:solid;text-decoration-color:#000000;letter-spacing:normal;word-spacing:normal;text-transform:none;writing-mode:lr-tb;direction:ltr;text-orientation:mixed;dominant-baseline:auto;baseline-shift:baseline;text-anchor:start;white-space:normal;shape-padding:0;clip-rule:nonzero;display:inline;overflow:visible;visibility:visible;opacity:1;isolation:auto;mix-blend-mode:normal;color-interpolation:sRGB;color-interpolation-filters:linearRGB;solid-color:#000000;solid-opacity:1;vector-effect:none;fill:#ffffff;fill-opacity:1;fill-rule:nonzero;stroke:none;stroke-width:3.70416665;stroke-linecap:butt;stroke-linejoin:round;stroke-miterlimit:20;stroke-dasharray:none;stroke-dashoffset:0;stroke-opacity:1;color-rendering:auto;image-rendering:auto;shape-rendering:auto;text-rendering:auto;enable-background:accumulate"
       d="M 140.57031,94.59506 C 123.7266,94.59514 110.03139,108.28845 110.03125,125.13217 110.03085,141.97626 123.72622,155.67113 140.57031,155.67123 157.41441,155.67113 171.10783,141.97626 171.10742,125.13217 171.10728,108.28845 157.41403,94.59514 140.57031,94.59506 Z M 140.57031,98.29818 C 155.41216,98.29826 167.40418,110.29031 167.4043,125.13217 167.40465,139.97436 155.4125,151.96802 140.57031,151.96811 125.72813,151.96802 113.73597,139.97436 113.73633,125.13217 113.73645,110.29031 125.72847,98.29826 140.57031,98.29818 Z M 178.77734,84.63803 A 1.8522685,1.8522685 0 0 0 176.92383,86.48959 V 107.29818 123.48178 157.44076 C 176.92383,165.77714 179.34565,172.52936 184.27344,177.25717 186.41652,179.39642 189.15667,181.06815 192.43164,182.29623 A 1.8522685,1.8522685 0 0 0 192.48047,182.31381 C 195.77655,183.44683 199.3579,184.00326 203.19727,184.00326 208.04008,184.00326 212.66772,183.14168 217.0293,181.41732 A 1.8522685,1.8522685 0 0 0 218.20117,179.69467 V 159.99154 A 1.8522685,1.8522685 0 0 0 214.77344,159.01498 C 211.98936,163.50231 207.42952,164.62826 203.41797,163.50717 199.40642,162.38608 196.14648,159.07051 196.14648,153.97201 V 125.33334 H 215.76953 A 1.8522685,1.8522685 0 0 0 217.62109,123.48178 V 107.29818 A 1.8522685,1.8522685 0 0 0 215.76953,105.44662 H 196.14648 V 86.48959 A 1.8522685,1.8522685 0 0 0 194.29492,84.63803 Z M 180.62891,88.34115 H 192.44336 V 107.29818 A 1.8522685,1.8522685 0 0 0 194.29492,109.14975 H 213.91797 V 121.63022 H 194.29492 A 1.8522685,1.8522685 0 0 0 192.44336,123.48178 V 153.97201 C 192.44336,160.70344 197.00695,165.56279 202.41992,167.07553 206.39739,168.1871 210.92726,167.48037 214.49609,164.73178 V 178.3099 C 210.91416,179.57532 207.17642,180.29818 203.19727,180.29818 199.72478,180.29818 196.57201,179.79666 193.70898,178.81576 190.83684,177.73532 188.58223,176.33163 186.87891,174.62826 A 1.8522685,1.8522685 0 0 0 186.84961,174.59896 C 182.73263,170.65718 180.62891,165.08704 180.62891,157.44076 V 123.48178 107.29818 Z M 48.234375,84.63803 A 1.8522685,1.8522685 0 0 0 46.382812,86.48959 V 191.36264 A 1.8522685,1.8522685 0 0 0 48.234375,193.2142 H 66.146484 A 1.8522685,1.8522685 0 0 0 67.998047,191.36264 V 160.20639 C 82.124134,167.34623 99.738762,165.65045 112.11914,154.61654 A 1.8522685,1.8522685 0 0 0 112.26953,152.00131 L 100.35156,138.63022 A 1.8522685,1.8522685 0 0 0 97.736328,138.47982 C 90.538693,144.89465 79.908115,144.55829 73.128906,137.70248 70.057495,134.59637 68.359532,130.71881 67.998047,126.73373 V 123.54232 C 68.337357,119.79201 69.861778,116.12458 72.628906,113.0892 79.124281,105.96398 89.733572,105.19637 97.185547,111.31381 A 1.8522685,1.8522685 0 0 0 99.791016,111.05795 L 111.1582,97.2142 A 1.8522685,1.8522685 0 0 0 110.90039,94.60873 C 102.8164,87.97246 92.772128,85.08247 83,85.78842 77.809137,86.16345 72.714374,87.61215 67.998047,89.99154 V 86.48959 A 1.8522685,1.8522685 0 0 0 66.146484,84.63803 Z M 50.087891,88.34115 H 64.294922 V 93.06772 A 1.8522685,1.8522685 0 0 0 67.113281,94.64779 C 72.052245,91.62855 77.609633,89.89041 83.265625,89.48178 91.540871,88.88396 99.953048,91.24526 107.00391,96.43686 L 97.990234,107.41342 C 89.16939,101.35022 77.236559,102.53485 69.890625,110.59311 66.57078,114.23478 64.705669,118.69424 64.300781,123.23764 A 1.8522685,1.8522685 0 0 0 64.294922,123.4017 V 126.86459 A 1.8522685,1.8522685 0 0 0 64.300781,127.0267 C 64.729788,131.85744 66.808783,136.57898 70.496094,140.30795 78.162627,148.06111 90.131933,148.76042 98.699219,142.34506 L 108.16992,152.96811 C 96.271999,162.49922 79.743089,163.34988 67.113281,155.6224 A 1.8522685,1.8522685 0 0 0 64.294922,157.20248 V 189.50912 H 50.087891 Z M 132.29115,12.353768 C 66.051249,12.353916 12.353378,66.05176 12.353251,132.29166 12.353378,198.53154 66.05127,252.22941 132.29115,252.22956 198.53137,252.2299 252.22995,198.53188 252.23008,132.29166 252.22995,66.051421 198.53139,12.353428 132.29115,12.353768 Z M 132.29115,16.629993 C 196.16964,16.629664 247.95373,68.413163 247.95385,132.29166 247.95373,196.17014 196.16962,247.95367 132.29115,247.95334 68.412997,247.9532 16.629599,196.16981 16.629476,132.29166 16.629599,68.413492 68.412976,16.630135 132.29115,16.629993 Z"
       inkscape:connector-curvature="0" />
  </g>
  <g
     inkscape:groupmode="layer"
     id="layer3"
     inkscape:label="fill-outline"
     style="display:none">
    <path
       style="color:#000000;font-style:normal;font-variant:normal;font-weight:normal;font-stretch:normal;font-size:medium;line-height:normal;font-family:sans-serif;font-variant-ligatures:normal;font-variant-position:normal;font-variant-caps:normal;font-variant-numeric:normal;font-variant-alternates:normal;font-feature-settings:normal;text-indent:0;text-align:start;text-decoration:none;text-decoration-line:none;text-decoration-style:solid;text-decoration-color:#000000;letter-spacing:normal;word-spacing:normal;text-transform:none;writing-mode:lr-tb;direction:ltr;text-orientation:mixed;dominant-baseline:auto;baseline-shift:baseline;text-anchor:start;white-space:normal;shape-padding:0;clip-rule:nonzero;display:inline;overflow:visible;visibility:visible;opacity:1;isolation:auto;mix-blend-mode:normal;color-interpolation:sRGB;color-interpolation-filters:linearRGB;solid-color:#000000;solid-opacity:1;vector-effect:none;fill:#ffffff;fill-opacity:1;fill-rule:nonzero;stroke:none;stroke-width:14;stroke-linecap:butt;stroke-linejoin:round;stroke-miterlimit:20;stroke-dasharray:none;stroke-dashoffset:0;stroke-opacity:1;color-rendering:auto;image-rendering:auto;shape-rendering:auto;text-rendering:auto;enable-background:accumulate"
       d="M 182.30273,319.89258 A 7.0006998,7.0006998 0 0 0 175.30469,326.89062 V 723.25977 A 7.0006998,7.0006998 0 0 0 182.30273,730.25781 H 250.00195 A 7.0006998,7.0006998 0 0 0 257,723.25977 V 605.50391 C 310.38993,632.48913 376.96583,626.07992 423.75781,584.37695 A 7.0006998,7.0006998 0 0 0 424.32617,574.49219 L 379.28125,523.95703 A 7.0006998,7.0006998 0 0 0 369.39648,523.38867 C 342.19282,547.6337 302.01479,546.36289 276.39258,520.45117 264.7841,508.71154 258.36624,494.05586 257,478.99414 V 466.93164 C 258.28243,452.75724 264.04547,438.89613 274.50391,427.42383 299.05335,400.49386 339.15146,397.59186 367.31641,420.71289 A 7.0006998,7.0006998 0 0 0 377.16211,419.74609 L 420.125,367.42383 A 7.0006998,7.0006998 0 0 0 419.15039,357.57617 C 388.59673,332.49421 350.6352,321.57208 313.70117,324.24023 294.08216,325.65767 274.82549,331.13203 257,340.125 V 326.89062 A 7.0006998,7.0006998 0 0 0 250.00195,319.89258 Z M 675.69336,319.89258 A 7.0006998,7.0006998 0 0 0 668.68945,326.89062 V 405.53711 466.70312 595.05078 C 668.68945,626.55836 677.84208,652.08033 696.4668,669.94922 704.56663,678.03457 714.92294,684.35258 727.30078,688.99414 A 7.0006998,7.0006998 0 0 0 727.48438,689.06055 C 739.942,693.34283 753.47923,695.44531 767.99023,695.44531 786.29377,695.44531 803.78287,692.18914 820.26758,685.67188 A 7.0006998,7.0006998 0 0 0 824.69727,679.16016 V 604.69336 A 7.0006998,7.0006998 0 0 0 811.74219,601.00195 C 801.21968,617.96194 783.98598,622.21766 768.82422,617.98047 753.66246,613.74328 741.3418,601.21133 741.3418,581.94141 V 473.70117 H 815.50781 A 7.0006998,7.0006998 0 0 0 822.50586,466.70312 V 405.53711 A 7.0006998,7.0006998 0 0 0 815.50781,398.53906 H 741.3418 V 326.89062 A 7.0006998,7.0006998 0 0 0 734.34375,319.89258 Z M 531.28906,357.52539 C 467.6278,357.52569 415.86576,409.2801 415.86523,472.94141 415.86372,536.60411 467.62636,588.3629 531.28906,588.36328 594.9518,588.3629 646.70663,536.60411 646.70508,472.94141 646.70455,409.2801 594.95037,357.52569 531.28906,357.52539 Z"
       transform="scale(0.26458333)"
       id="path869"
       inkscape:connector-curvature="0" />
    <path
       style="color:#000000;font-style:normal;font-variant:normal;font-weight:normal;font-stretch:normal;font-size:medium;line-height:normal;font-family:sans-serif;font-variant-ligatures:normal;font-variant-position:normal;font-variant-caps:normal;font-variant-numeric:normal;font-variant-alternates:normal;font-feature-settings:normal;text-indent:0;text-align:start;text-decoration:none;text-decoration-line:none;text-decoration-style:solid;text-decoration-color:#000000;letter-spacing:normal;word-spacing:normal;text-transform:none;writing-mode:lr-tb;direction:ltr;text-orientation:mixed;dominant-baseline:auto;baseline-shift:baseline;text-anchor:start;white-space:normal;shape-padding:0;clip-rule:nonzero;display:inline;overflow:visible;visibility:visible;opacity:1;isolation:auto;mix-blend-mode:normal;color-interpolation:sRGB;color-interpolation-filters:linearRGB;solid-color:#000000;solid-opacity:1;vector-effect:none;fill:#ffffff;fill-opacity:1;fill-rule:nonzero;stroke:none;stroke-width:14;stroke-linecap:butt;stroke-linejoin:round;stroke-miterlimit:20;stroke-dasharray:none;stroke-dashoffset:0;stroke-opacity:1;color-rendering:auto;image-rendering:auto;shape-rendering:auto;text-rendering:auto;enable-background:accumulate"
       d="M 499.99805,46.691406 C 249.64252,46.691966 46.689933,249.64447 46.689453,500 46.689933,750.35545 249.6426,953.30803 499.99805,953.30859 750.35478,953.30988 953.31006,750.35674 953.31055,500 953.31006,249.64319 750.35486,46.690121 499.99805,46.691406 Z M 499.99805,62.853516 C 741.42856,62.852272 937.14798,258.56946 937.14844,500 937.14798,741.43047 741.42848,937.14773 499.99805,937.14648 258.56881,937.14596 62.852027,741.42923 62.851562,500 62.852027,258.57071 258.56873,62.854052 499.99805,62.853516 Z"
       transform="scale(0.26458333)"
       id="path857"
       inkscape:connector-curvature="0" />
  </g>
</svg>
